<?xml version="1.0" encoding="UTF-8"?>
<svg xmlns="http://www.w3.org/2000/svg" id="Calque_1" data-name="Calque 1" width="47.76792mm" height="47.73438mm" viewBox="0 0 135.40514 135.31007">
  <defs>
    <style>
      .cls-1 {
        fill: #fffb66;
      }
    </style>
  </defs>
  <g>
    <path class="cls-1" d="M121.01012,68.32129c0-.33538-.0191-.66607-.02527-1h11.412a3.01177,3.01177,0,0,0,3.00433-3.16357,67.48716,67.48716,0,0,0-16.58184-41.00915,3.00574,3.00574,0,0,0-4.38691-.14277l-5.87738,5.877-2.46832,2.46814q-.694-.72034-1.41406-1.414l8.39239-8.39161.00006-.00012a3.00692,3.00692,0,0,0-.11236-4.36035A67.50468,67.50468,0,0,0,71.8958.00568a3.01159,3.01159,0,0,0-3.19317,3.00269v12.0307c-.33393-.00617-.66461-.02527-1-.02527s-.66608.0191-1,.02527V3.00837A3.01159,3.01159,0,0,0,63.50945.00568a67.50644,67.50644,0,0,0-41.057,17.17871A3.00685,3.00685,0,0,0,22.34,21.54481l3.759,3.75891,4.63342,4.63336q-.72033.694-1.41406,1.41406l-2.4657-2.46564-5.87988-5.87963a3.00575,3.00575,0,0,0-4.387.14276A67.48694,67.48694,0,0,0,.004,64.15772a3.01182,3.01182,0,0,0,3.00433,3.16357H14.4204c-.00616.33393-.02527.66462-.02527,1s.01911.66608.02527,1H3.10387A3.01035,3.01035,0,0,0,.10308,72.54151,67.50476,67.50476,0,0,0,17.23314,112.906a3.00608,3.00608,0,0,0,4.35914.11139h0l2.424-2.42389,5.30212-5.302h0q.694.72033,1.41406,1.41406h0l-3.05481,3.05463-4.62433,4.62414-.00012.00019a3.00509,3.00509,0,0,0,.14185,4.38568,67.48419,67.48419,0,0,0,40.31708,16.53424,3.01054,3.01054,0,0,0,3.19055-3.00269V121.60352c.33392.00617.66461.02527,1,.02527s.66607-.0191,1-.02527V132.3017a3.01055,3.01055,0,0,0,3.19061,3.00269,67.48433,67.48433,0,0,0,40.317-16.53418,3.00508,3.00508,0,0,0,.14184-4.38568l-.00018-.00025-7.6792-7.67859q.72033-.694,1.41406-1.41406l1.79816,1.798,5.928,5.92742a3.00614,3.00614,0,0,0,4.359-.11138,67.50326,67.50326,0,0,0,17.13012-40.36414,3.01034,3.01034,0,0,0-3.00079-3.22022H120.98485C120.991,68.98737,121.01012,68.65668,121.01012,68.32129Z"></path>
  </g>
</svg>
